<?xml version="1.0" encoding="UTF-8"?>
<svg
  xmlns="http://www.w3.org/2000/svg"
  xmlns:svg="http://www.w3.org/2000/svg"
  xmlns:rdf="http://www.w3.org/1999/02/22-rdf-syntax-ns#"
  xmlns:cc="http://creativecommons.org/ns#"
  xmlns:dc="http://purl.org/dc/elements/1.1/"
  viewBox="0 0 360 422"
  width="360"
  height="422"
  >
  <title id="title1">laptop</title>
  <desc id="document-version">
    1.1
  </desc>
  <metadata id="metadata1">
    <rdf:RDF>
      <cc:Work rdf:about="">
        <dc:title>laptop</dc:title>
        <dc:date>2024-08-23</dc:date>
        <dc:creator>
          <cc:Agent>
            <dc:title>Timothy Rezendes &amp; 232 Software</dc:title>
          </cc:Agent>
        </dc:creator>
        <dc:subject>
          <rdf:Bag>
            <rdf:li>chromebook</rdf:li>
            <rdf:li>laptop</rdf:li>
            <rdf:li>computer</rdf:li>
          </rdf:Bag>
        </dc:subject>
        <cc:license rdf:resource="http://creativecommons.org/publicdomain/zero/1.0/" />
        <dc:description>Line illustration of an open laptop computer</dc:description>
      </cc:Work>
      <cc:License rdf:about="http://creativecommons.org/publicdomain/zero/1.0/">
        <cc:permits rdf:resource="http://creativecommons.org/ns#Reproduction" />
        <cc:permits rdf:resource="http://creativecommons.org/ns#Distribution" />
        <cc:permits rdf:resource="http://creativecommons.org/ns#DerivativeWorks" />
      </cc:License>
    </rdf:RDF>
  </metadata>
  <defs>
    <style>
      rect {
        stroke: #000000;
        fill: none;
      }
      #upper-shell, #lower-shell {
        fill: #ffffff;
      }
      #monitor {
        fill: #aaaaaa;
      }
      text {
        fill="#000000;"
      }
    </style>
  </defs>
  <g id="computer">
  <rect id="upper-shell" x="10" y="10" width="340" height="200" rx="10"  />
  <rect id="lower-shell" x="10" y="212" width="340" height="200" rx="10"  />
  <rect id="monitor" x="20" y="20" width="320" height="180" rx="6"  />
  <circle id="camera" cx="180" cy="15" r="2" />
  <rect id="keyboard-well" x="30" y="222" width="300" height="118" rx="5"  />
  <rect id="trackpad" x="147.5" y="344" width="85" height="63" rx="6"  />
  <g id="keyboard">
    <g id="function-row">
      <rect x="38" y="225" width="20" height="10" rx="2"  />
      <text x="43.5" y="231.5"  font-size="7px">esc</text>
      <rect x="62" y="225" width="20" height="10" rx="2"  />
      <rect x="86" y="225" width="20" height="10" rx="2"  />
      <rect x="110" y="225" width="20" height="10" rx="2"  />
      <rect x="134" y="225" width="20" height="10" rx="2"  />
      <rect x="158" y="225" width="20" height="10" rx="2"  />
      <rect x="182" y="225" width="20" height="10" rx="2"  />
      <rect x="206" y="225" width="20" height="10" rx="2"  />
      <rect x="230" y="225" width="20" height="10" rx="2"  />
      <rect x="254" y="225" width="20" height="10" rx="2"  />
      <rect x="278" y="225" width="20" height="10" rx="2"  />
      <rect x="302" y="225" width="20" height="10" rx="2"  />
      <g id="power-symbol"><!-- Power Symbol -->
        <circle cx="312" cy="230" r="3" fill="none" stroke="#000000" />
        <line x1="312" y1="226" x2="312" y2="230" style="stroke:white;stroke-width:3" />
        <line x1="312" y1="226" x2="312" y2="230" style="stroke:black;stroke-width:1" />
      </g>
    </g>
    <g id="number-row">
      <rect x="32" y="237" width="18.5" height="18" rx="2"  />
      <text x="40" y="255" >`</text>
      <rect x="52.5" y="237" width="18.5" height="18" rx="2"  />
      <text x="59.5" y="249"  font-size="10px">1</text>
      <rect x="73" y="237" width="18.5" height="18" rx="2"  />
      <text x="80" y="249"  font-size="10px">2</text>
      <rect x="93.5" y="237" width="18.5" height="18" rx="2"  />
      <text x="100.5" y="249"  font-size="10px">3</text>
      <rect x="114" y="237" width="18.5" height="18" rx="2"  />
      <text x="121" y="249"  font-size="10px">4</text>
      <rect x="134.5" y="237" width="18.5" height="18" rx="2"  />
      <text x="141.5" y="249"  font-size="10px">5</text>
      <rect x="155" y="237" width="18.5" height="18" rx="2"  />
      <text x="162" y="249"  font-size="10px">6</text>
      <rect x="175.5" y="237" width="18.5" height="18" rx="2"  />
      <text x="182.5" y="249"  font-size="10px">7</text>
      <rect x="196" y="237" width="18.5" height="18" rx="2"  />
      <text x="203" y="249"  font-size="10px">8</text>
      <rect x="216.5" y="237" width="18.5" height="18" rx="2"  />
      <text x="223.5" y="249"  font-size="10px">9</text>
      <rect x="237" y="237" width="18.5" height="18" rx="2"  />
      <text x="244" y="249"  font-size="10px">0</text>
      <rect x="257.5" y="237" width="18.5" height="18" rx="2"  />
      <text x="265" y="248"  font-size="10px">-</text>
      <rect x="278" y="237" width="18.5" height="18" rx="2"  />
      <text x="285" y="248"  font-size="10px">=</text>
      <rect x="298.5" y="237" width="28" height="18" rx="2"  />
      <text x="300.5" y="248"  font-size="6px">backspace</text>
    </g>
    <g id="qwerty-row">
      <rect x="32" y="257" width="28" height="18" rx="2"  />
      <text x="38" y="268"  font-size="8px">tab</text>
      <rect x="62" y="257" width="18.5" height="18" rx="2"  />
      <text x="68.5" y="267.5"  font-size="10px">q</text>
      <rect x="82.5" y="257" width="18.5" height="18" rx="2"  />
      <text x="88" y="268"  font-size="10px">w</text>
      <rect x="103" y="257" width="18.5" height="18" rx="2"  />
      <text x="110" y="268"  font-size="10px">e</text>
      <rect x="123.5" y="257" width="18.5" height="18" rx="2"  />
      <text x="130.5" y="268"  font-size="10px">r</text>
      <rect x="144" y="257" width="18.5" height="18" rx="2"  />
      <text x="151" y="268"  font-size="10px">t</text>
      <rect x="164.5" y="257" width="18.5" height="18" rx="2"  />
      <text x="171.5" y="268"  font-size="10px">y</text>
      <rect x="185" y="257" width="18.5" height="18" rx="2"  />
      <text x="192" y="268"  font-size="10px">u</text>
      <rect x="205.5" y="257" width="18.5" height="18" rx="2"  />
      <text x="212.5" y="268"  font-size="10px">i</text>
      <rect x="226" y="257" width="18.5" height="18" rx="2"  />
      <text x="233" y="268"  font-size="10px">o</text>
      <rect x="246.5" y="257" width="18.5" height="18" rx="2"  />
      <text x="253.5" y="268"  font-size="10px">p</text>
      <rect x="267" y="257" width="18.5" height="18" rx="2"  />
      <text x="274" y="268"  font-size="10px">[</text>
      <rect x="287.5" y="257" width="18.5" height="18" rx="2"  />
      <text x="294.5" y="268"  font-size="10px">]</text>
      <rect x="308" y="257" width="18.5" height="18" rx="2"  />
      <text x="316" y="269"  font-size="10px">\</text>
    </g>
    <g id="home-row">
      <rect x="32" y="277" width="33" height="18" rx="2"  />
      <g id="search-symbol">
        <circle cx="46" cy="285" r="2" fill="none" stroke="#000000" />
        <line x1="47" y1="286" x2="51" y2="288" style="stroke:black;stroke-width:1" />
      </g>
      <rect x="67" y="277" width="18.5" height="18" rx="2"  />
      <text x="74" y="288"  font-size="10px">a</text>
      <rect x="87.5" y="277" width="18.5" height="18" rx="2"  />
      <text x="94.5" y="288"  font-size="10px">s</text>
      <rect x="108" y="277" width="18.5" height="18" rx="2"  />
      <text x="115" y="288.5"  font-size="10px">d</text>
      <rect x="128.5" y="277" width="18.5" height="18" rx="2"  />
      <text x="135.5" y="288.5"  font-size="10px">f</text>
      <rect x="149" y="277" width="18.5" height="18" rx="2"  />
      <text x="156" y="288"  font-size="10px">g</text>
      <rect x="169.5" y="277" width="18.5" height="18" rx="2"  />
      <text x="176.5" y="288.5"  font-size="10px">h</text>
      <rect x="190" y="277" width="18.5" height="18" rx="2"  />
      <text x="197" y="288"  font-size="10px">j</text>
      <rect x="210.5" y="277" width="18.5" height="18" rx="2"  />
      <text x="217.5" y="288.5"  font-size="10px">k</text>
      <rect x="231" y="277" width="18.5" height="18" rx="2"  />
      <text x="238" y="288.5"  font-size="10px">l</text>
      <rect x="251.5" y="277" width="18.5" height="18" rx="2"  />
      <text x="259" y="288"  font-size="10px">;</text>
      <rect x="272" y="277" width="18.5" height="18" rx="2"  />
      <text x="280" y="290"  font-size="10px">'</text>
      <rect x="292.5" y="277" width="34" height="18" rx="2"  />
      <text x="305" y="288"  font-size="8px">enter</text>
    </g>
    <g id="shift-row">
      <rect x="32" y="297" width="43" height="18" rx="2"  />
      <text x="39" y="308"  font-size="8px">shift</text>
      <rect x="77" y="297" width="18.5" height="18" rx="2"  />
      <text x="84" y="308"  font-size="10px">z</text>
      <rect x="97.5" y="297" width="18.5" height="18" rx="2"  />
      <text x="104.5" y="308"  font-size="10px">x</text>
      <rect x="118" y="297" width="18.5" height="18" rx="2"  />
      <text x="125" y="308"  font-size="10px">c</text>
      <rect x="138.5" y="297" width="18.5" height="18" rx="2"  />
      <text x="145.5" y="308"  font-size="10px">v</text>
      <rect x="159" y="297" width="18.5" height="18" rx="2"  />
      <text x="166" y="308.5"  font-size="10px">b</text>
      <rect x="179.5" y="297" width="18.5" height="18" rx="2"  />
      <text x="186.5" y="308"  font-size="10px">n</text>
      <rect x="200" y="297" width="18.5" height="18" rx="2"  />
      <text x="206" y="308"  font-size="10px">m</text>
      <rect x="220.5" y="297" width="18.5" height="18" rx="2"  />
      <text x="227.5" y="306"  font-size="10px">,</text>
      <rect x="241" y="297" width="18.5" height="18" rx="2"  />
      <text x="248" y="306"  font-size="10px">.</text>
      <rect x="261.5" y="297" width="18.5" height="18" rx="2"  />
      <text x="270" y="309"  font-size="10px">/</text>
      <rect x="282.5" y="297" width="44" height="18" rx="2"  />
      <text x="305" y="308"  font-size="8px">shift</text>
    </g>
    <g id="bottom-row">
      <rect x="32" y="317" width="43" height="18" rx="2"  />
      <text x="39" y="327.5"  font-size="8px">ctrl</text>
      <rect x="77" y="317" width="39" height="18" rx="2"  />
      <text x="84" y="327.5"  font-size="8px">alt</text>
      <rect x="118" y="317" width="100.5" height="18" rx="2"  />
      <rect x="220.5" y="317" width="18.5" height="18" rx="2"  />
      <text x="226" y="327.5"  font-size="8px">alt</text>
      <rect x="241" y="317" width="18.5" height="18" rx="2"  />
      <text x="245" y="327.5"  font-size="8px">ctrl</text>
      <g id="arrows">
        <rect x="286.5" y="317" width="18.5" height="8.5" rx="2"  />
        <polygon points="295.75,318.5 293.5,323 298,323" style="stroke:none;stroke-width:1" />
        <rect x="264.5" y="327" width="18.5" height="8.5" rx="2"  />
        <polygon points="268,331.25 272.5,329 272.5,333.5" style="stroke:none;stroke-width:1" />
        <rect x="286.5" y="327" width="18.5" height="8.5" rx="2"  />
        <polygon points="295.75,334 293.5,329.5 298,329.5" style="stroke:none;stroke-width:1" />
        <rect x="308.5" y="327" width="18.5" height="8.5" rx="2"  />
        <polygon points="323.5,331.25 319,329 319,333.5" style="stroke:none;stroke-width:1" />
      </g>
    </g>
  </g>
</g>
</svg>
